<svg width="326" height="91" viewBox="0 0 326 91" fill="none" xmlns="http://www.w3.org/2000/svg">
<path d="M14.5 20.2812V71H0.953125V20.2812H14.5ZM0.109375 7.0625C0.109375 5.09375 0.796875 3.46875 2.17188 2.1875C3.54688 0.90625 5.39062 0.265625 7.70312 0.265625C9.98438 0.265625 11.8125 0.90625 13.1875 2.1875C14.5938 3.46875 15.2969 5.09375 15.2969 7.0625C15.2969 9.03125 14.5938 10.6563 13.1875 11.9375C11.8125 13.2187 9.98438 13.8594 7.70312 13.8594C5.39062 13.8594 3.54688 13.2187 2.17188 11.9375C0.796875 10.6563 0.109375 9.03125 0.109375 7.0625ZM57.7656 20.2812H70V69.3125C70 73.9375 68.9688 77.8594 66.9062 81.0781C64.875 84.3281 62.0312 86.7812 58.375 88.4375C54.7188 90.125 50.4688 90.9688 45.625 90.9688C43.5 90.9688 41.25 90.6875 38.875 90.125C36.5312 89.5625 34.2812 88.6875 32.125 87.5C30 86.3125 28.2188 84.8125 26.7812 83L32.7344 75.0312C34.2969 76.8438 36.1094 78.25 38.1719 79.25C40.2344 80.2812 42.5156 80.7969 45.0156 80.7969C47.4531 80.7969 49.5156 80.3438 51.2031 79.4375C52.8906 78.5625 54.1875 77.2656 55.0938 75.5469C56 73.8594 56.4531 71.8125 56.4531 69.4062V32L57.7656 20.2812ZM23.6406 46.25V45.2656C23.6406 41.3906 24.1094 37.875 25.0469 34.7188C26.0156 31.5312 27.375 28.7969 29.125 26.5156C30.9062 24.2344 33.0625 22.4688 35.5938 21.2188C38.125 19.9688 40.9844 19.3438 44.1719 19.3438C47.5469 19.3438 50.375 19.9688 52.6562 21.2188C54.9375 22.4688 56.8125 24.25 58.2812 26.5625C59.75 28.8438 60.8906 31.5469 61.7031 34.6719C62.5469 37.7656 63.2031 41.1562 63.6719 44.8438V47C63.2031 50.5312 62.5 53.8125 61.5625 56.8438C60.625 59.875 59.3906 62.5312 57.8594 64.8125C56.3281 67.0625 54.4219 68.8125 52.1406 70.0625C49.8906 71.3125 47.2031 71.9375 44.0781 71.9375C40.9531 71.9375 38.125 71.2969 35.5938 70.0156C33.0938 68.7344 30.9531 66.9375 29.1719 64.625C27.3906 62.3125 26.0156 59.5938 25.0469 56.4688C24.1094 53.3438 23.6406 49.9375 23.6406 46.25ZM37.1406 45.2656V46.25C37.1406 48.3438 37.3438 50.2969 37.75 52.1094C38.1562 53.9219 38.7812 55.5312 39.625 56.9375C40.5 58.3125 41.5781 59.3906 42.8594 60.1719C44.1719 60.9219 45.7188 61.2969 47.5 61.2969C49.9688 61.2969 51.9844 60.7812 53.5469 59.75C55.1094 58.6875 56.2812 57.2344 57.0625 55.3906C57.8438 53.5469 58.2969 51.4219 58.4219 49.0156V42.875C58.3594 40.9062 58.0938 39.1406 57.625 37.5781C57.1562 35.9844 56.5 34.625 55.6562 33.5C54.8125 32.375 53.7188 31.5 52.375 30.875C51.0312 30.25 49.4375 29.9375 47.5938 29.9375C45.8125 29.9375 44.2656 30.3438 42.9531 31.1562C41.6719 31.9375 40.5938 33.0156 39.7188 34.3906C38.875 35.7656 38.2344 37.3906 37.7969 39.2656C37.3594 41.1094 37.1406 43.1094 37.1406 45.2656ZM81.1562 64.4844C81.1562 62.4844 81.8438 60.8125 83.2188 59.4688C84.625 58.125 86.4844 57.4531 88.7969 57.4531C91.1094 57.4531 92.9531 58.125 94.3281 59.4688C95.7344 60.8125 96.4375 62.4844 96.4375 64.4844C96.4375 66.4844 95.7344 68.1562 94.3281 69.5C92.9531 70.8438 91.1094 71.5156 88.7969 71.5156C86.4844 71.5156 84.625 70.8438 83.2188 69.5C81.8438 68.1562 81.1562 66.4844 81.1562 64.4844ZM121.562 31.1094V71H108.062V20.2812H120.719L121.562 31.1094ZM119.594 43.8594H115.938C115.938 40.1094 116.422 36.7344 117.391 33.7344C118.359 30.7031 119.719 28.125 121.469 26C123.219 23.8438 125.297 22.2031 127.703 21.0781C130.141 19.9219 132.859 19.3438 135.859 19.3438C138.234 19.3438 140.406 19.6875 142.375 20.375C144.344 21.0625 146.031 22.1562 147.438 23.6562C148.875 25.1562 149.969 27.1406 150.719 29.6094C151.5 32.0781 151.891 35.0938 151.891 38.6562V71H138.297V38.6094C138.297 36.3594 137.984 34.6094 137.359 33.3594C136.734 32.1094 135.812 31.2344 134.594 30.7344C133.406 30.2031 131.938 29.9375 130.188 29.9375C128.375 29.9375 126.797 30.2969 125.453 31.0156C124.141 31.7344 123.047 32.7344 122.172 34.0156C121.328 35.2656 120.688 36.7344 120.25 38.4219C119.812 40.1094 119.594 41.9219 119.594 43.8594ZM185.5 71.9375C181.562 71.9375 178.031 71.3125 174.906 70.0625C171.781 68.7812 169.125 67.0156 166.938 64.7656C164.781 62.5156 163.125 59.9062 161.969 56.9375C160.812 53.9375 160.234 50.75 160.234 47.375V45.5C160.234 41.6562 160.781 38.1406 161.875 34.9531C162.969 31.7656 164.531 29 166.562 26.6562C168.625 24.3125 171.125 22.5156 174.062 21.2656C177 19.9844 180.312 19.3438 184 19.3438C187.594 19.3438 190.781 19.9375 193.562 21.125C196.344 22.3125 198.672 24 200.547 26.1875C202.453 28.375 203.891 31 204.859 34.0625C205.828 37.0938 206.312 40.4688 206.312 44.1875V49.8125H166V40.8125H193.047V39.7812C193.047 37.9062 192.703 36.2344 192.016 34.7656C191.359 33.2656 190.359 32.0781 189.016 31.2031C187.672 30.3281 185.953 29.8906 183.859 29.8906C182.078 29.8906 180.547 30.2812 179.266 31.0625C177.984 31.8438 176.938 32.9375 176.125 34.3438C175.344 35.75 174.75 37.4062 174.344 39.3125C173.969 41.1875 173.781 43.25 173.781 45.5V47.375C173.781 49.4062 174.062 51.2812 174.625 53C175.219 54.7188 176.047 56.2031 177.109 57.4531C178.203 58.7031 179.516 59.6719 181.047 60.3594C182.609 61.0469 184.375 61.3906 186.344 61.3906C188.781 61.3906 191.047 60.9219 193.141 59.9844C195.266 59.0156 197.094 57.5625 198.625 55.625L205.188 62.75C204.125 64.2812 202.672 65.75 200.828 67.1562C199.016 68.5625 196.828 69.7188 194.266 70.625C191.703 71.5 188.781 71.9375 185.5 71.9375ZM228.484 57.875L239.031 20.2812H247.609L244.844 35.0469L234.297 71H227.125L228.484 57.875ZM223.141 20.2812L230.688 57.8281L231.391 71H222.953L210.109 20.2812H223.141ZM257.266 57.2188L264.625 20.2812H277.703L264.859 71H256.469L257.266 57.2188ZM248.781 20.2812L259.281 57.5938L260.734 71H253.516L242.969 35.0938L240.297 20.2812H248.781ZM311.922 56.9844C311.922 56.0156 311.641 55.1406 311.078 54.3594C310.516 53.5781 309.469 52.8594 307.938 52.2031C306.438 51.5156 304.266 50.8906 301.422 50.3281C298.859 49.7656 296.469 49.0625 294.25 48.2188C292.062 47.3438 290.156 46.2969 288.531 45.0781C286.938 43.8594 285.688 42.4219 284.781 40.7656C283.875 39.0781 283.422 37.1562 283.422 35C283.422 32.875 283.875 30.875 284.781 29C285.719 27.125 287.047 25.4688 288.766 24.0312C290.516 22.5625 292.641 21.4219 295.141 20.6094C297.672 19.7656 300.516 19.3438 303.672 19.3438C308.078 19.3438 311.859 20.0469 315.016 21.4531C318.203 22.8594 320.641 24.7969 322.328 27.2656C324.047 29.7031 324.906 32.4844 324.906 35.6094H311.406C311.406 34.2969 311.125 33.125 310.562 32.0938C310.031 31.0312 309.188 30.2031 308.031 29.6094C306.906 28.9844 305.438 28.6719 303.625 28.6719C302.125 28.6719 300.828 28.9375 299.734 29.4688C298.641 29.9688 297.797 30.6562 297.203 31.5312C296.641 32.375 296.359 33.3125 296.359 34.3438C296.359 35.125 296.516 35.8281 296.828 36.4531C297.172 37.0469 297.719 37.5938 298.469 38.0938C299.219 38.5938 300.188 39.0625 301.375 39.5C302.594 39.9062 304.094 40.2812 305.875 40.625C309.531 41.375 312.797 42.3594 315.672 43.5781C318.547 44.7656 320.828 46.3906 322.516 48.4531C324.203 50.4844 325.047 53.1562 325.047 56.4688C325.047 58.7188 324.547 60.7812 323.547 62.6562C322.547 64.5312 321.109 66.1719 319.234 67.5781C317.359 68.9531 315.109 70.0312 312.484 70.8125C309.891 71.5625 306.969 71.9375 303.719 71.9375C299 71.9375 295 71.0938 291.719 69.4062C288.469 67.7188 286 65.5781 284.312 62.9844C282.656 60.3594 281.828 57.6719 281.828 54.9219H294.625C294.688 56.7656 295.156 58.25 296.031 59.375C296.938 60.5 298.078 61.3125 299.453 61.8125C300.859 62.3125 302.375 62.5625 304 62.5625C305.75 62.5625 307.203 62.3281 308.359 61.8594C309.516 61.3594 310.391 60.7031 310.984 59.8906C311.609 59.0469 311.922 58.0781 311.922 56.9844Z" fill="white"/>
</svg>
